<mxfile host="Electron" modified="2025-01-28T09:36:17.512Z" agent="Mozilla/5.0 (X11; Linux x86_64) AppleWebKit/537.36 (KHTML, like Gecko) draw.io/24.2.5 Chrome/120.0.6099.109 Electron/28.1.0 Safari/537.36" etag="3jqFuMtGvtmE2cajHbOT" version="24.2.5" type="device">
  <diagram name="Page-1" id="1MX8sRdk3vvOPyclgT-5">
    <mxGraphModel dx="1002" dy="662" grid="1" gridSize="10" guides="1" tooltips="1" connect="1" arrows="1" fold="1" page="1" pageScale="1" pageWidth="850" pageHeight="1100" math="0" shadow="0">
      <root>
        <mxCell id="0" />
        <mxCell id="1" parent="0" />
        <mxCell id="FrB29ydRfxGLOtMy5E5V-2" value="" style="rounded=1;whiteSpace=wrap;html=1;fillColor=#f5f5f5;fontColor=#333333;strokeColor=#666666;" vertex="1" parent="1">
          <mxGeometry x="330" y="387" width="920" height="280" as="geometry" />
        </mxCell>
        <mxCell id="FrB29ydRfxGLOtMy5E5V-1" value="" style="shape=image;verticalLabelPosition=bottom;labelBackgroundColor=default;verticalAlign=top;aspect=fixed;imageAspect=0;image=data:image/png,iVBORw0KGgoAAAANSUhEUgAAAxIAAADqCAYAAAA27XMiAAAABHNCSVQICAgIfAhkiAAAABl0RVh0U29mdHdhcmUAZ25vbWUtc2NyZWVuc2hvdO8Dvz4AAAAtdEVYdENyZWF0aW9uIFRpbWUAVHVlIDI4IEphbiAyMDI1IDEwOjMzOjExIEFNIENFVPQqLFoAABlJSURBVHic7d1/aFX3/cfx171ek1A1ijZaY01uiqVZhW0ojNIVDGpXrV2ijjkcMjZxG9Ni84dstYFiC2LtLAoLOItksVvpxrRItOK6TA36XZlMoVpN1dicmGiSWVq7GiFN4uf7h7dXbU12P/l17jv3+YAX7p7cnH1yXkk+effm3kRudFx3AgAAAAAf8Xi5k0QMhu7shu7shu7shu7shu7shu7sJpXuomEPMgAAAADsYZAAAAAA4C1aW7tejY2NqqysVCQSCXs9Gemhhx7Sm2++qU8++eSu4wsXLlR9fT39pKnRo0dr06ZNamxs1Llz57R161ZFo7dmc7pLb1lZWaqsrNTZs2d17tw57dy5U9nZ2RLdmfLHP/5Rx44dS96mu/R36NAhNTc3KwgCBUGgvLw8ie5MGD9+vKqqqnTu3DmdPXtWhYWFEt2lvcWLFye/3oIgUGtrq+rq6qTB6u6JJ15248aNc845t3z58tB/HysT8/rrr7sf/OAH7sqVK8ljOTk5rrGx0cXj8V774fcOw000GnU//elPXXZ2tovFYu7IkSNu0aJFdGck3/nOd1wkEnHRaNQdPnzYLVmyhO4MpaSkxP3tb39zx44dc+J7ppm8//77buLEiXcdozsb+etf/+o2bNjgIpEI3RnOr3/9a/fCCy8MWnfRlpZPtG7dOtXW1mrBggWDPwrhf/rFL36hPXv2aPTo0cljs2fP1vHjxxUEQUr9zJgxQ0eOHFF1dbVqamr0z3/+UwUFBZKkefPm6fjx43r//fd14sQJjR8/flg+rpHu5s2bqq6uVmdnp7q7u/XRRx9p7NixdGfE8ePH5ZxTfn6+Jk2apDNnztCdEVlZWdq0aZM2btyYPEZ3NuTm5urTTz+96xjdpb8pU6bom9/8pl566SU555LH6c6WaDSqlStXqqqqavC6e/zxl9zp06fdN77xDVdbWxv6pJTJ+fjjj5P/+4c//KF77bXXXEFBQa/93Dkpzpgxw3V3d7uioiInyVVUVLiNGzc6Se6dd95xjz/+uFPivx6E/XGOxOTm5rqmpib34IMP0p2R5OXluebmZtfZ2enWrFnjxNedmVRUVLhnn33WFRcXJx+RoDsbaWlpcceOHXOnT592v/nNb+jOSL73ve+5d955x7355puurq7O7dy50+Xm5tKdsSxcuNDt2bPHaRC/7qIVFaWqqKhQT0+Purq6hnUyQt9isZi2bNmScj8fffSRGhsbJUlNTU2aPHmyJKmqqkrbt2/Xz372M928eXNY1p5JRo0aperqav3+979XS0uLRHcmXL16VdOnT9e0adO0bNkylZaWSnSX9oqKivT0009r+/btX3sb3aW/6dOn64knntDcuXP14x//WIsXL5boLu2NHz9eM2fOVEVFhebMmaMLFy7oxRdflOjOlNWrV2vHjh3J24PRXXTs2BzV1NSosLBQly9fHvIPAqlpbm7WihUrlJubm3I/N27cuOv2l0+a2bNnj+bPn6+ioiKdOHFCEyZMGNK1Z5JIJKKdO3fqP//5jzZt2iTRnTkff/yxdu/erXnz5tGdAc8884wefPBBnTlzRgcOHNCsWbP0j3/8g+6M+PLXYq5evaq3335b3/72t+nOgPb2dh09elRBEEiS3n33XX3rW9+iO0MKCwtVXFysv//979Ig/qwS/dOf/k+jRo3SmjVrtG/fviH9IJC6kydPauLEidq+ffuA+5kyZYquXr2qF198UZ9++qlmzpw56OvNRJFIRDt27FBPT49+9atfJY/TXfqbNGmSZsyYIUnKycnRokWLdPbsWboz4He/+11yQ3z66ad18uRJzZs3j+4MGDNmjPLz86XEcyXmz5+vU6dO0Z0B//73vzVr1ixNmzZNkvTkk0/qzJkzdGfIL3/5S1VVVSWH+cHqLvrCC6W6cuWKGhsbVVNTMwRLx/+yevVqHTx4UJMmTdLBgwe1atUqffHFF3ryySf129/+dsD9fPkylydOnFBzc7P+9a9/DfrHkIm++93v6uc//7m+//3vq7W1VW1tbaqtraU7A8aOHas///nPamlp0YULF3T+/Hnt3LmT7gyju/R33333ae/evQqCQKdPn9ahQ4f09ttv050BN27c0Nq1a7Vv3z7V19drzpw5evnll+nOiKysLP3kJz/RH/7wh+SxQeuOl+WyG7qzG7qzG7qzG7qzG7qzG7qzm5Re/nVwZx4AAAAAmSCSmDYAAAAAIHU+Dzlx36G9b7qsg/vSHfdN73VwX7rLpPumyzq4L91l0n1TvT+/2gQAAADAG4MEAAAAAG8MEgAAAAC8MUgAAAAA8MYgAQAAAMAbgwQAAAAAbwwSAAAAAPzxp8vthu7shu7shu7shu7shu7shu7shr8jAQAAAGBIMEgAAAAA8BYNqreFvYY0ePBG0pGwL0KCx5qDxm0j91qE/fnAtUi/66A0uA5O4ntmmn1e+HQ3kr9nKg0+H9LlWoR9DbgWd3/dpcP3TIV/HSx+TqTyPTM9HpGokxQJOenC41rEi8pH7rVIh88JrkV6XQdxLZLS4ToYvBYj+num0uTzIh2kw3XgWqTXdRDXImmQv2emxyABAAAAwBQGCQAAAADeGCQAAAAAeGOQAAAAAOCNQQIAAACANwYJAAAAAN4YJAAAAAB4Y5AAAAAA4I1BAgAAAIA3BgkAAAAA3hgkAAAAAHhjkAAAAADgjUECAAAAgDcGCQAAAADeGCQAAAAAeIvpiKQNYS8jDXAdbuNa3DZE1yLQtsE/6VDic+I2rsVtXItbuA638T3zNj4vbuE63DYSr0U8Xu4kEYOhO7uhO7uhO7uhO7uhO7uhO7tJpbtI4k4AAAAAkDomRbuhO7uhO7uhO7uhO7uhO7uhO7tJpTuebA0AAADAG4MEAAAAAG+xoHqbVBL2MtKAC3sB/ky+igUkujON7uwasu7qxD4KICPxiMSX6iRFbCVeVB76GgjdZVrozm6GrDsAyFAMEgAAAAC8MUgAAAAA8MYgAQAAAMAbgwQAAAAAbwwSAAAAALwxSAAAAADwxiABAAAAwBuDBAAAAABvDBIAAAAAvDFIAAAAAPDGIAEAAADAG4MEAAAAAG8MEgAAAAC8MUgAAAAA8MYgAQAAAMBbTEckbQh7GQAAGMU+OuQCbQt7CegnurMrle5i8epyBQElAwDQLwwRQy4e52cVq+jOrlS6i8Tj5W7YVgQAAABgZEgMEsRg6M5u6M5u6M5u6M5u6M5u6M5uUumOJ1sDAAAA8MYgAQAAAMBbLKjeJpWEvQwAAPrBpX5XXj3GLrqzi+7STJ0G9ed+HpEAANhVJymSWuJF5Snfl6RX6M5u6C7NMsgYJAAAAAB4Y5AAAAAA4I1BAgAAAIA3BgkAAAAA3hgkAAAAAHhjkAAAAADgjUECAAAAgDcGCQAAAADeGCQAAAAAeGOQAAAAAOCNQQIAAACANwYJAAAAAN4YJAAAAAB4Y5AAAAAA4I1BAgAAAIC3mI5I2hD2MtAfgbaFvQT0E93ZRXcAALM8fu5PZb+LxavLFQRsjBbF43RnFd3ZRXcAALM8HjxIZb+LxOPlbuCrAgAAAJBREoMEMRi6sxu6sxu6sxu6sxu6sxu6s5tUuuPJ1gAAAAC8MUjciasBAPDBvgEgg8XcqJthryE9xCTtl/RU2AtJHa8eYxfd2UV3dg16d07Su5KekdQ9uKcGAAuiPROvh72G9JAn6TNJETuJF5WHvgZCd5kWurObQe8umtg38sLewAAgHNHu+z8Lew3p4QFJbWEvAgBgSlti/wCADBTtvv+/Ya8hPTwgqTXsRQAATGllkACQuaLdkz4Pew3pYQqPSAAAPLUl9g8AyEA8IvGlByS1h70IAIAp7TwiASBzRbvzbg8SCxcuVH19vRobG1VZWalIJGLq+IBMvfVflkpKStTR0aGLFy+qvr5eq1atSt6lq6tLQRAkU15ennzb888/rwsXLiRv93Wezs5ONTQ06OLFizp8+LAKCgr6PH9vxxsaXut1PQCAYdCW2D8S0m1fHNZ9FEDmie0Z5yS5nJwc19jY6OLxuBs3bpxzzrnly5ebOT7gv+D3FzlNlSspKXH79+93ktzUqVPdyZMn3ZIlS5wkd/369V7f/7333nOnT592jz76qJP6Pk9bW1vy/V555RX36quv9nn+3o53dHSG/lcPSf/CX/q0G7qzmyHpbmpi/2AftdcdoTsy4O6i3RM/l7Kl2bNn6/jx4wqCQOvWrVNtba0WLFhg5viAZEuaLOna3YdbW1u1fv16rV69us93nzJlisaMGaOqqiotXrz4a2/v7TyRSERjx47V5cuXB7Z+AEA4riX2j0zfRwFkpKhcRBov5efnq6WlRQUFBVq6dKnWrl2radOmmTk+IBMSc9W4r7/p1KlTeuSRRyRJ2dnZd/0q0dy5cyVJpaWlOnDggPbt26eysrJ7/l/ceZ4JEyboww8/VHt7u2bOnKkdO3b0ef7ejgMAQpab2D8yfR8FkJFi0S9iupnXdetGLKYtW7aooqJCPT096uqydbzf8iR13vuPCuXk5Kinp0dKPLchHo9/7T5lZWXatGmTGhoalJubq/z8/D7Pc+3aNRUXFysSiWjz5s3avHmznnvuuV7P39vx7OyYgiBI3l65cqUOHTrk//EDAPrnK/tHuu2Lw7aPAshI0eiNHGmy1NzcrBUrVig3N1c1NTUqLCzU5cuXzRwfkMmSPk/8+xWzZs3SmTNnen3XMWPGaNGiRXrrrbcUBIGKi4tVWlqa0nmcc9q9e7cee+yxfi27s7Nb8Xg8GYYIABhmd+wf6bYvDus+CiAzZVVPdloml5WV5ZxzrqyszI0aNcrt3bvXlZWVmTk+oCeU/EhOr8tp2d1Pkn744YddfX29W7BggVMvT3peunSpe+ONN5K358yZ4w4ePNjnee58svX69evdrl27ej1/X8d5srXd8OQzu6E7uxmS7u7YP9JtXxzWfdRid4TuyMC7u2/rQ05rbt2YP3++O3/+vGtvb3dbt251kUjE1PF+51k5bZTTmluDREdHh2tqanIffPDBXa9k0dXV5YIgSKa8vNzt2rXLLVu2LHmfWCzm2traXGlpaa/n6ezsdA0NDe7SpUvu6NGjbvr06b2ev6/jDBJ2wzdWu6E7uxmS7u7YP5SG++Kw7aMWuyN0RwbeXe76WU4bwl9sqHkpsQkYuw58cdoN3dkN3dnNkHRndP+wFr7u7Ibu7Call38dfWXiPZ8bkFEmS2q693MkAADoFfsHgAwWzbqUd89XK8ooeZIu3vtVmwAA6BX7B4AMFimc8axrqqyUngp7KSFxkt6VVCqpRpl7HQAAftg/AGS6eLzcKRr+72GFmuhX/jUSfu/QbujObujOboakO6P7h7XwdWc3dGc3qXQXSdwJAAAAAFLHpGg3dGc3dGc3dGc3dGc3dGc3dGc3Kb1qU9iDDAAAAAB7GCQAAAAAeGOQAAAAAOCNQQIAAACANwYJAAAAAN4YJAAAAAB4Y5AAAAAA4I1BAgAAAIA3BgkAAAAA3hgkAAAAAHhjkAAAAADgjUECAAAAgDcGCQAAAADeGCQAAAAAeGOQAAAAAOCNQQIAAACANwYJAAAAAN4YJAAAAAB4Y5AAAAAA4I1BAgAAAIA3BgkAAAAA3iLxeLkLexEAAAAAjEkMEsRg6M5u6M5u6M5u6M5u6M5u6M5uUumOX20CAAAA4I1BAgAAAIC3iI7IqSTsZQwRF/YChlidRHdG0Z1ddGfXSO5OI7w/urOL7uxKobuR/YhEnaTICM5IRnd20Z1ddGfbSO5vpKM7uzK8u5E9SAAAAAAYEgwSAAAAALwxSAAAAADwxiABAAAAwBuDBAAAAABvDBIAAAAAvDFIAAAAAPDGIAEAAADAG4MEAAAAAG8MEgAAAAC8MUgAAAAA8MYgAQAAAMAbgwQAAAAAbwwSAAAAALwxSAAAAADwFtMRSRvCXgb6he7soju76M4uurOL7uyiO7tS6S4eL3eSiMHQnd3Qnd3Qnd3Qnd3Qnd3Qnd2k0l0kcScAAAAASB2Tot3Qnd3Qnd3Qnd3Qnd3Qnd3Qnd2k0h1PtgYAAADgjUECAAAAgLdYUL1NKgl7GQBGDBf2AoZWoG1hLwH9RHd2jfju6sTPYjCJRyQADK46SZGRm3hReehrIHSXaRnx3QFGMUgAAAAA8MYgAQAAAMAbgwQAAAAAbwwSAAAAALwxSAAAAADwxiABAAAAwBuDBAAAAABvDBIAAAAAvDFIAAAAAPDGIAEAAADAG4MEAAAAAG8MEgAAAAC8MUgAAAAA8MYgAQAAAMAbgwQAAAAAbzEdkbQh7GWgPwJtC3sJ6Ce6AwAkjeCfxdjv7Eqlu1i8ulxBQMkWxeN0ZxXdAQCSRugQIfY701LpLhKPl7thWxEAAACAkSExSBCDoTu7oTu7oTu7oTu7oTu7oTu7SaU7nmwNAAAAwBuDBAAAAABvsaB6m1QS9jIAwIagkScNWsWrx9hFd3YFdfycOZLxiAQA+KiTFCEWEy8qD30NhO4yLhjRGCQAAAAAeGOQAAAAAOCNQQIAAACANwYJAAAAAN4YJAAAAAB4Y5AAAAAA4I1BAgAAAIA3BgkAAAAA3hgkAAAAAHhjkAAAAADgjUECAAAAgDcGCQAAAADeGCQAAAAAeGOQAAAAAOCNQQIAAACAt5iOSNoQ9jLQH4G2hb0E9BPdAQAyAj9nmpXSzyrxeLmTRAyG7uyG7uyG7uyG7uyG7uyG7uwmle4iiTsBAAAAQOqYFO2G7uyG7uyG7uyG7uyG7uyG7uwmle54sjUAAAAAbwwSd+JqAAB8sG8AyGAxN+pm2GtIDzFJ+yU9FfZCUscr/9hFd3bRnV2D3p2T9K6kZyR1D+6pAcCCaM/E62GvIT3kSfpMUsRO4kXloa+B0F2mhe7sZtC7iyb2jbywNzAACEe0+/7Pwl5DenhAUlvYiwAAmNKW2D8AIANFu+//b9hrSA8PSGoNexEAAFNaGSQAZK5o96TPw15DepjCIxIAAE9tif0DADIQj0h86QFJ7WEvAgBgSjuPSADIXNHuvNuDxMKFC1VfX6/GxkZVVlYqEomYOj4gU2/9l6WSkhJ1dHTo4sWLqq+v16pVq5J36erqUhAEyZSXlyff9vzzz+vChQvJ232dp7OzUw0NDbp48aIOHz6sgoKCPs/f2/GGhtd6XQ8AYBi0JfaPhHTbF4d1HwWQeWJ7xjlJLicnxzU2Nrp4PO7GjRvnnHNu+fLlZo4P+C/4/UVOU+VKSkrc/v37nSQ3depUd/LkSbdkyRInyV2/fr3X93/vvffc6dOn3aOPPuqkvs/T1taWfL9XXnnFvfrqq32ev7fjHR2dof/VQ9K/8Jc+7Ybu7GZIupua2D/YR+11R+iODLi7aPfEz6Vsafbs2Tp+/LiCINC6detUW1urBQsWmDk+INmSJku6dvfh1tZWrV+/XqtXr+7z3adMmaIxY8aoqqpKixcv/trbeztPJBLR2LFjdfny5YGtHwAQjmuJ/SPT91EAGSkqF5HGS/n5+WppaVFBQYGWLl2qtWvXatq0aWaOD8iExFw17utvOnXqlB555BFJUnZ29l2/SjR37lxJUmlpqQ4cOKB9+/aprKzsnv8Xd55nwoQJ+vDDD9Xe3q6ZM2dqx44dfZ6/t+MAgJDlJvaPTN9HAWSkWPSLmG7mdd26EYtpy5YtqqioUE9Pj7q6bB3vtzxJnff+o0I5OTnq6emREs9tiMfjX7tPWVmZNm3apIaGBuXm5io/P7/P81y7dk3FxcWKRCLavHmzNm/erOeee67X8/d2PDs7piAIkrdXrlypQ4cO+X/8AID++cr+kW774rDtowAyUjR6I0eaLDU3N2vFihXKzc1VTU2NCgsLdfnyZTPHB2SypM8T/37FrFmzdObMmV7fdcyYMVq0aJHeeustBUGg4uJilZaWpnQe55x2796txx57rF/L7uzsVjweT4YhAgCG2R37R7rti8O6jwLITFnVk52WyWVlZTnnnCsrK3OjRo1ye/fudWVlZWaOD+gJJT+S0+tyWnb3k6QffvhhV19f7xYsWODUy5Oely5d6t54443k7Tlz5riDBw/2eZ47n2y9fv16t2vXrl7P39dxnmxtNzz5zG7ozm6GpLs79o902xeHdR+12B2hOzLw7u7b+pDTmls35s+f786fP+/a29vd1q1bXSQSMXW833lWThvltObWINHR0eGamprcBx98cNcrWXR1dbkgCJIpLy93u3btcsuWLUveJxaLuba2NldaWtrreTo7O11DQ4O7dOmSO3r0qJs+fXqv5+/rOIOE3fCN1W7ozm6GpLs79g+l4b44bPuoxe4I3ZGBd5e7fpbThvAXG2peSmwCxq4DX5x2Q3d2Q3d2MyTdGd0/rIWvO7uhO7tJ6eVfR1+ZeM/nBmSUyZKa7v0cCQAAesX+ASCDRbMu5d3z1YoySp6ki/d+1SYAAHrF/gEgg0UKZzzrmiorpafCXkpInKR3JZVKqlHmXgcAgB/2DwCZLh4vd4qG/3tYoSb6lX+NhN87tBu6sxu6s5sh6c7o/mEtfN3ZDd3ZTSrdRRJ3AgAAAIDUMSnaDd3ZDd3ZDd3ZDd3ZDd3ZDd3ZTUqv2hT2IAMAAADAHgYJAAAAAN4YJAAAAAB4+38QtWW9HGMffQAAAABJRU5ErkJggg==;" vertex="1" parent="1">
          <mxGeometry x="440" y="410" width="786" height="234" as="geometry" />
        </mxCell>
        <mxCell id="FrB29ydRfxGLOtMy5E5V-3" value="clk_l" style="text;html=1;align=center;verticalAlign=middle;resizable=0;points=[];autosize=1;strokeColor=none;fillColor=none;" vertex="1" parent="1">
          <mxGeometry x="390" y="430" width="50" height="30" as="geometry" />
        </mxCell>
        <mxCell id="FrB29ydRfxGLOtMy5E5V-4" value="req_l" style="text;html=1;align=center;verticalAlign=middle;resizable=0;points=[];autosize=1;strokeColor=none;fillColor=none;" vertex="1" parent="1">
          <mxGeometry x="390" y="452" width="50" height="30" as="geometry" />
        </mxCell>
        <mxCell id="FrB29ydRfxGLOtMy5E5V-5" value="ack_l" style="text;html=1;align=center;verticalAlign=middle;resizable=0;points=[];autosize=1;strokeColor=none;fillColor=none;" vertex="1" parent="1">
          <mxGeometry x="390" y="476" width="50" height="30" as="geometry" />
        </mxCell>
        <mxCell id="FrB29ydRfxGLOtMy5E5V-6" value="data_l[31:0]" style="text;html=1;align=center;verticalAlign=middle;resizable=0;points=[];autosize=1;strokeColor=none;fillColor=none;" vertex="1" parent="1">
          <mxGeometry x="352" y="498" width="90" height="30" as="geometry" />
        </mxCell>
        <mxCell id="FrB29ydRfxGLOtMy5E5V-7" value="clk_r" style="text;html=1;align=center;verticalAlign=middle;resizable=0;points=[];autosize=1;strokeColor=none;fillColor=none;" vertex="1" parent="1">
          <mxGeometry x="390" y="545" width="50" height="30" as="geometry" />
        </mxCell>
        <mxCell id="FrB29ydRfxGLOtMy5E5V-8" value="req_r" style="text;html=1;align=center;verticalAlign=middle;resizable=0;points=[];autosize=1;strokeColor=none;fillColor=none;" vertex="1" parent="1">
          <mxGeometry x="390" y="568" width="50" height="30" as="geometry" />
        </mxCell>
        <mxCell id="FrB29ydRfxGLOtMy5E5V-9" value="ack_r" style="text;html=1;align=center;verticalAlign=middle;resizable=0;points=[];autosize=1;strokeColor=none;fillColor=none;" vertex="1" parent="1">
          <mxGeometry x="389" y="591" width="50" height="30" as="geometry" />
        </mxCell>
        <mxCell id="FrB29ydRfxGLOtMy5E5V-10" value="data_r[31:0]" style="text;html=1;align=center;verticalAlign=middle;resizable=0;points=[];autosize=1;strokeColor=none;fillColor=none;" vertex="1" parent="1">
          <mxGeometry x="351" y="615" width="90" height="30" as="geometry" />
        </mxCell>
      </root>
    </mxGraphModel>
  </diagram>
</mxfile>
